<?xml version="1.0" encoding="UTF-8"?>
<svg id="Capa_1" data-name="Capa 1" xmlns="http://www.w3.org/2000/svg" viewBox="0 0 200 200">
  <defs>
    <style>
      .cls-1 {
        fill: #1d1d1b;
      }

      .cls-2, .cls-3 {
        stroke: #1d1d1b;
        stroke-miterlimit: 10;
        stroke-width: 1.5px;
      }

      .cls-2, .cls-4, .cls-5 {
        fill: #fff;
      }

      .cls-3 {
        fill: #f18900;
      }

      .cls-4 {
        opacity: .8;
      }

      .cls-5 {
        opacity: .7;
      }
    </style>
  </defs>
  <path class="cls-2" d="m38.5,123.66c1.43,5.04,3.86,13.27,11.2,20.66,4.16,4.19,8.21,6.4,10.58,7.68,5.16,2.75,10.82,4.61,20.72,5.98,9.33,1.29,23.92,3.16,42.35-.77,13.47-2.88,19.09-6.74,21.18-8.29,6.53-4.84,9.81-10.33,10.74-11.97,1.45-2.56,3.51-6.25,4.14-11.5.24-2.01,1.07-9.12-2.61-15.2-.52-.84-1.63-2.52-4.14-6.6-1.44-2.33-2.08-3.4-2.46-5.06-.27-1.19-.33-2.33,0-5.52.36-3.5.84-6.15,1.07-7.37.06-.33.12-.66.17-.97-.6.1-1.25.2-1.98.29-.56.07-2.98.36-6.34.35-2.84-.01-4.79-.22-6.79-.46-4.79-.56-5.5-1.1-5.87-1.72-.65-1.08-.38-2.59.11-3.57.52-1,1.34-1.53,1.85-1.84.94-.6,1.61-.67,2.42-.92,1.94-.62,3.16-1.82,4.83-3.46.66-.65,1.69-1.65,2.77-3.21,1.18-1.72,1.58-2.92,2.88-3.34.2-.07,1-.31,1.84,0,.84.31,1.15.98,1.85,1.84.37.48,1.09,1.09,2.53,2.31.61.52,1.3,1.1,2.13,1.72.43-2.73.65-4.32.62-5.55-.06-3.31-.06-5.81-1.74-11.08-1.23-3.85-2.69-5.92-3.87-7.92-.51-.86-2.41-3.97-6.04-6.91-4.26-3.44-8.42-4.68-11.66-5.61-4.58-1.32-8.04-1.49-13.37-1.72-7.87-.35-11.91-.53-17.27.86-3.55.92-8.93,2.32-13.82,6.91-4.88,4.59-6.61,9.88-7.77,13.39-2.28,6.95-2.22,13.49-2.16,15.53.14,4.28.83,6.81,0,11.66-.5,2.94-.91,5.15-2.59,7.33-2.69,3.5-6.77,4.47-9.55,5.12-3.35.79-6.07.63-8.57.5-3.97-.24-5.95-.36-7.77-1.3-.46-.24-1.74-.96-3.55-1.19-.67-.1-1.46-.2-2.22,0-1.59.41-2.62,2.05-3.56,4.43-2.01,5.02-2.12,9.24-2.12,9.25-.12,4.39-.27,9.84,1.84,17.24Z"/>
  <path class="cls-3" d="m130.48,83.18c.37.62,1.08,1.17,5.87,1.72,2,.24,3.95.45,6.79.46,3.36.01,5.78-.27,6.34-.35.73-.09,1.39-.19,1.98-.29,1.87-.32,3.09-.65,3.42-.74,1.61-.46,2.99-.98,4.37-1.72,1.69-.92,2.89-1.59,2.99-2.65.09-.88-.65-1.6-1.49-2.42-1.65-1.58-2.61-1.58-5.06-3.1-.74-.46-1.41-.93-2.01-1.38-.83-.62-1.53-1.2-2.13-1.72-1.44-1.22-2.16-1.82-2.53-2.31-.69-.86-1-1.53-1.85-1.84-.83-.31-1.64-.07-1.84,0-1.3.42-1.7,1.61-2.88,3.34-1.08,1.56-2.11,2.57-2.77,3.21-1.66,1.64-2.89,2.84-4.83,3.46-.81.25-1.48.32-2.42.92-.51.31-1.33.83-1.85,1.84-.5.98-.76,2.49-.11,3.57Z"/>
  <path class="cls-1" d="m85.94,110.57c-2.05-.51-4.1-1.05-6.13-1.65-1.97-.7-3.84-1.4-5.94-1.18-1.95.14-3.83,1-5.14,2.44-2.24,2.23-1.63,5.44-.27,7.99,1.3,2.81,3.74,4.72,6.17,6.61,3.14,2.43,7.97,2.86,11.43.3-3.13,3.12-8.55,3.17-12.1.66-2.7-1.84-5.39-3.9-6.82-6.93-3.47-5.91-.07-11.89,6.67-12.23,2.2-.14,4.33.76,6.26,1.66,1.93.83,3.92,1.5,5.87,2.33h0Z"/>
  <circle class="cls-1" cx="119.74" cy="64.68" r="5.71"/>
  <ellipse class="cls-4" cx="118.97" cy="63.35" rx="1.85" ry="1.32"/>
  <path class="cls-5" d="m145.1,49.71c-1.24-2.37-3.91-4.25-6.38-5.6-4.03-2.21-7.32-3.58-9.2-4.03-3.63-.86-5.1-1.04-7.28-1.53-.11-.03-.67-.02-.96.14-.39.22-.43.77-.38,1.06.13.8,1.38,1.09,2.19,1.29,1.73.45,3.91.67,5.18.95.78.18,2.22.63,4.92,1.88,3.2,1.48,6.24,3.14,7.19,4.05.47.45,1.75,1.96,2.65,2.94.2.21,1.09,1.01,1.99.55s.31-1.3.09-1.71Z"/>
  <path class="cls-5" d="m159.24,97.16c.42.78.82.98.73,1.29-.03.1-.09.16-.35.33-.59.39-.96.55-1.61.88-.12.06-.5.26-1.02.4-.25.07-.41.09-.5,0-.12-.11-.11-.35-.02-.5.08-.14.21-.19.44-.29.39-.17.62-.27.77-.4.29-.23.48-.63.48-1,0-.42-.24-.51-.29-1.15-.02-.25-.04-.45.08-.54.19-.15.63.04.9.29.2.19.19.3.4.69Z"/>
  <path class="cls-5" d="m134.79,82.61c-.36.04-.86.09-1.4-.2-.16-.09-.94-.52-.93-1.19,0-.44.34-.75.7-1.08.22-.2.51-.46.9-.44.07,0,.34.02.41.17.09.21-.32.39-.38.87,0,.07-.05.35.12.58.11.15.26.22.55.35.29.13.37.11.49.23.02.02.26.25.2.44-.06.2-.43.24-.67.26Z"/>
</svg>